<svg xmlns="http://www.w3.org/2000/svg" xml:space="preserve" viewBox="0 0 512 512" fill="#006bdc"><path d="M238 16.6a243.7 243.7 0 0 0-88 24.5A235.2 235.2 0 0 0 40.9 150.5a237.5 237.5 0 0 0 .6 212 239.9 239.9 0 0 0 180.8 131.1c15.5 2.5 50.7 2.5 66.8.1A240.8 240.8 0 0 0 491.4 210a142.8 142.8 0 0 0-10.3-35c-6.5-9-18.3-9.4-25.4-1-4.4 5.1-4.4 8.8-.4 22.9 18.2 63 7.1 127.2-31.3 181.3-7.8 11-25.3 29.5-36.4 38.5A212.2 212.2 0 0 1 281 462a291 291 0 0 1-52.8-.5A207.8 207.8 0 0 1 54.1 303.3a230.2 230.2 0 0 1-3.6-76.2A207.7 207.7 0 0 1 315.1 56.7c14.1 4 17.8 4 22.9-.4 8.5-7.1 8-18.8-1.1-25.5-5.7-4.2-37.2-11.6-58.3-13.7-10-1-32.1-1.2-40.6-.5z"/><path d="M405.5 25a55.4 55.4 0 0 0-44.9 52.7c-.1 8.8 1 11.4 6.8 15.7 3.9 2.9 13.3 2.9 17.2 0 4.7-3.5 6.5-6.8 7.4-13.6 1-8.4 3.2-12.9 8.6-17.7 9.9-8.7 22.4-8.2 31.9 1.4 7.8 7.7 9.5 16.6 5.1 26-2.4 5.3-8 10.9-12.5 12.7-1.4.5-5.5 1.4-9 1.8-6.7.9-10 2.7-13.5 7.4-1.9 2.5-2.1 4.1-2.1 20.6 0 19.6.2 20.5 6.9 25.4 3.9 2.9 13.3 2.9 17.2 0 5.5-4.1 6.9-7 7.2-15.4l.4-7.9 8.4-4.1a56 56 0 0 0 29-34c1.4-4 1.9-8.4 1.9-16 0-11.5-1.4-17-6.9-27.4A56.9 56.9 0 0 0 405.5 25z"/><path d="M243.8 113c-34 5.8-59.9 31-66.4 64.8a80.1 80.1 0 0 0 16.4 64.2c1.7 2.1 3.2 4.2 3.2 4.7 0 .4-3.3 2.8-7.2 5.3-15.3 9.6-32 28.4-40.7 45.6a121.8 121.8 0 0 0-12.9 53.6c.4 7.2 2 10.4 7.2 14.2 3.9 2.9 13.3 2.9 17.2 0 5.6-4.1 6.7-6.6 7.5-17.6a88.2 88.2 0 0 1 62.1-79.9c10.9-3.5 15.2-7 16.4-13.4 1.6-8.5-2.2-14.7-11.9-19.7a50.1 50.1 0 0 1-25.2-31.3 48.2 48.2 0 0 1 53.5-58.8 48.2 48.2 0 0 1 39.5 58.8 50.1 50.1 0 0 1-25.2 31.3c-9.7 5-13.5 11.2-11.9 19.7 1.2 6 5.8 10.2 13.9 12.6a88.4 88.4 0 0 1 64.6 80.7c.9 11 1.9 13.5 7.5 17.6 3.9 2.9 13.3 2.9 17.2 0 4.8-3.5 6.7-7 7.2-12.9.6-7.4-1.5-23.1-4.4-33.5a146 146 0 0 0-19.3-38.7 132.2 132.2 0 0 0-29.9-28.3 37.3 37.3 0 0 1-7.2-5.3c0-.5 1.5-2.6 3.3-4.7a79.9 79.9 0 0 0-74.5-129z"/><path d="M409.5 169.4a17.3 17.3 0 0 0-9.1 11.1c-1.2 6.4 0 17.2 2.2 20.2 3.9 5.2 7.1 6.8 13.4 6.8 6.3 0 9.5-1.6 13.4-6.9 1.8-2.3 2.1-4.2 2.1-12.6 0-10.6-.9-13-6.7-17.3-3.3-2.5-11.3-3.2-15.3-1.3z"/></svg>